<svg width="50" height="50" viewBox="0 0 50 50" fill="none" xmlns="http://www.w3.org/2000/svg">
<circle cx="25" cy="25" r="25" fill="url(#paint0_linear)"/>
<g clip-path="url(#clip0)">
<path d="M26.7514 35.5656C26.9346 35.5656 27.1144 35.4917 27.2439 35.3614C27.3735 35.2319 27.448 35.0528 27.448 34.869C27.448 34.6857 27.3735 34.5067 27.2439 34.3765C27.1144 34.2469 26.9346 34.1724 26.7514 34.1724C26.5682 34.1724 26.3885 34.2468 26.2589 34.3765C26.1293 34.506 26.0548 34.6857 26.0548 34.869C26.0548 35.0529 26.1293 35.2319 26.2589 35.3614C26.3885 35.4918 26.5682 35.5656 26.7514 35.5656Z" fill="#F3F3F3"/>
<path d="M23.5819 34.1724C23.3987 34.1724 23.2189 34.2468 23.0894 34.3765C22.9598 34.506 22.8853 34.6857 22.8853 34.869C22.8853 35.0529 22.9598 35.2319 23.0894 35.3614C23.2189 35.4917 23.3987 35.5656 23.5819 35.5656C23.7651 35.5656 23.9448 35.4917 24.0744 35.3614C24.2039 35.2319 24.2785 35.0528 24.2785 34.869C24.2785 34.6857 24.2039 34.506 24.0744 34.3765C23.9448 34.2469 23.7651 34.1724 23.5819 34.1724Z" fill="#F3F3F3"/>
<path d="M21.4767 30.9321L20.5043 29.9596C20.2323 29.6877 19.7912 29.6876 19.5192 29.9596C19.2471 30.2316 19.2471 30.6727 19.5191 30.9448L20.6323 32.058C20.2171 32.8035 19.9796 33.6609 19.9796 34.573V35.4761C19.9796 36.2196 20.2383 36.9036 20.6702 37.4435L19.5191 38.5945C19.2471 38.8666 19.2471 39.3077 19.5191 39.5798C19.6551 39.7157 19.8334 39.7838 20.0117 39.7838C20.1899 39.7838 20.3683 39.7157 20.5042 39.5798L21.7662 38.3178C21.9781 38.4203 22.2029 38.5004 22.438 38.5534C22.4467 39.4703 23.1953 40.2135 24.1142 40.2135H26.2191C27.138 40.2135 27.8865 39.4703 27.8953 38.5534C28.1302 38.5003 28.355 38.4203 28.5671 38.3178L29.829 39.5798C29.965 39.7157 30.1433 39.7838 30.3216 39.7838C30.4998 39.7838 30.6782 39.7157 30.8141 39.5798C31.0862 39.3077 31.0862 38.8666 30.8141 38.5945L29.663 37.4435C30.0948 36.9036 30.3536 36.2196 30.3536 35.4761V34.573C30.3536 33.6608 30.1161 32.8034 29.7009 32.058L30.8141 30.9448C31.0862 30.6728 31.0862 30.2317 30.8141 29.9596C30.5421 29.6876 30.101 29.6876 29.829 29.9596L28.8566 30.9321C27.9155 29.9784 26.6091 29.386 25.1666 29.386C23.7241 29.386 22.4178 29.9784 21.4767 30.9321ZM28.9604 34.573V35.4761C28.9604 36.4475 28.1701 37.2378 27.1988 37.2378C26.814 37.2378 26.5022 37.5498 26.5022 37.9344V38.5373C26.5022 38.6933 26.3752 38.8204 26.2191 38.8204H24.1142C23.9581 38.8204 23.8311 38.6934 23.8311 38.5373V37.9344C23.8311 37.5498 23.5193 37.2378 23.1345 37.2378C22.1632 37.2378 21.3728 36.4475 21.3728 35.4761V34.573C21.3728 32.4811 23.0747 30.7792 25.1666 30.7792C27.2585 30.7792 28.9604 32.4811 28.9604 34.573Z" fill="#F3F3F3"/>
<path d="M39.6719 27.103C38.2842 25.046 36.3345 23.4676 34.0337 22.5385L33.361 22.2669C34.2179 21.4095 34.6849 20.4151 34.6849 19.3843C34.6849 18.7582 34.509 18.1318 34.1785 17.5485L29.7737 9.98234C28.8082 8.32356 27.086 7.33325 25.1666 7.33325C23.2473 7.33325 21.5251 8.32356 20.5596 9.98234L16.1516 17.5579C16.1512 17.5584 16.151 17.5573 16.1507 17.5579C16.1498 17.5596 16.1487 17.5562 16.1478 17.5579C15.8173 18.1412 15.6497 18.7582 15.6497 19.3843C15.6497 20.415 16.1167 21.4092 16.9732 22.2666L16.2997 22.5385C13.9988 23.4676 12.0491 25.0459 10.6614 27.103C9.2737 29.1599 8.54016 31.5588 8.54016 34.0401V36.9942C8.54016 40.3058 11.2343 42.9999 14.5459 42.9999H14.5781H35.7552H35.7875C39.099 42.9999 41.7932 40.3058 41.7932 36.9942V34.0401C41.7932 31.5588 41.0597 29.1599 39.6719 27.103ZM21.7636 10.6832C22.4768 9.458 23.749 8.72648 25.1666 8.72648C26.5843 8.72648 27.8565 9.458 28.5696 10.6832L32.1375 16.8127C29.8421 16.2842 27.5039 16.0198 25.1663 16.0198C22.8286 16.0198 20.4907 16.2842 18.1958 16.8127L21.7636 10.6832ZM21.8996 17.5961C24.0714 17.3552 26.262 17.3552 28.4338 17.5961V19.8096C28.4338 21.6111 26.9682 23.0767 25.1667 23.0767C23.3652 23.0767 21.8996 21.6111 21.8996 19.8096V17.5961ZM40.4 36.9942C40.4 39.3118 38.6814 41.235 36.4518 41.5582V30.9485C36.4518 28.5286 34.4831 26.5598 32.0632 26.5598H28.3014C27.9167 26.5598 27.6048 26.8718 27.6048 27.2564C27.6048 27.6411 27.9167 27.953 28.3014 27.953H32.0632C33.7148 27.953 35.0586 29.2968 35.0586 30.9485V41.6067H15.2748V30.9485C15.2748 29.2968 16.6185 27.953 18.2702 27.953H22.0318C22.4166 27.953 22.7285 27.6411 22.7285 27.2564C22.7285 26.8718 22.4166 26.5598 22.0318 26.5598H18.2702C15.8503 26.5598 13.8815 28.5286 13.8815 30.9485V41.5582C11.6519 41.235 9.93339 39.3119 9.93339 36.9942V34.0401C9.93339 29.5276 12.637 25.52 16.8213 23.8304L18.2388 23.258C18.4227 23.3722 18.615 23.4822 18.8163 23.5873C18.9192 23.6409 19.0294 23.6664 19.1379 23.6664C19.3892 23.6664 19.6319 23.53 19.7561 23.2918C19.9341 22.9507 19.8017 22.53 19.4606 22.3521C17.9241 21.5507 17.0429 20.469 17.0429 19.3843C17.0429 19.0856 17.1089 18.7872 17.2376 18.4939C18.3169 18.1947 19.4082 17.9588 20.5063 17.784V19.8096C20.5063 22.3794 22.5969 24.47 25.1666 24.47C27.7364 24.47 29.827 22.3793 29.827 19.8096V17.784C30.9256 17.9589 32.0173 18.195 33.0971 18.4943C33.2257 18.7874 33.2916 19.0858 33.2916 19.3843C33.2916 20.4691 32.4102 21.5509 30.8734 22.3522C30.5323 22.5301 30.3999 22.9509 30.5778 23.292C30.7021 23.5302 30.9448 23.6666 31.1961 23.6666C31.3046 23.6666 31.4148 23.6412 31.5176 23.5876C31.719 23.4826 31.9113 23.3725 32.0951 23.2583L33.5119 23.8303C37.6961 25.5199 40.3998 29.5275 40.3998 34.0401V36.9942H40.4Z" fill="#F3F3F3"/>
<path d="M34.1785 17.5487C34.1843 17.5579 34.1731 17.5391 34.1785 17.5487V17.5487Z" fill="#F3F3F3"/>
<path d="M25.1667 27.953C25.3499 27.953 25.5296 27.8785 25.6592 27.7489C25.7888 27.6194 25.8633 27.4396 25.8633 27.2564C25.8633 27.0732 25.7888 26.8935 25.6592 26.7639C25.5296 26.6344 25.3499 26.5598 25.1667 26.5598C24.9835 26.5598 24.8038 26.6343 24.6742 26.7639C24.5446 26.8935 24.4701 27.0732 24.4701 27.2564C24.4701 27.4396 24.5446 27.6194 24.6742 27.7489C24.8038 27.8785 24.9835 27.953 25.1667 27.953Z" fill="#F3F3F3"/>
</g>
<defs>
<linearGradient id="paint0_linear" x1="44.6667" y1="18.6667" x2="18.6667" y2="-2.66667" gradientUnits="userSpaceOnUse">
<stop stop-color="#6F2867"/>
<stop offset="1" stop-opacity="0.76"/>
</linearGradient>
<clipPath id="clip0">
<rect width="35.6667" height="35.6667" fill="white" transform="translate(7.33337 7.33325)"/>
</clipPath>
</defs>
</svg>
