<svg width="39" height="22" viewBox="0 0 39 22" fill="none" xmlns="http://www.w3.org/2000/svg">
<path fill-rule="evenodd" clip-rule="evenodd" d="M19.0812 21.9079H21.4123C21.4123 21.9079 22.1165 21.8315 22.476 21.4482C22.8069 21.0964 22.7963 20.4357 22.7963 20.4357C22.7963 20.4357 22.7508 17.3427 24.2026 16.8872C25.6337 16.4386 27.4714 19.8766 29.4192 21.1985C30.8922 22.199 32.0114 21.9796 32.0114 21.9796L37.2197 21.9079C37.2197 21.9079 39.9442 21.7419 38.6524 19.6237C38.5465 19.4504 37.9 18.0568 34.7799 15.1931C31.5143 12.1959 31.9516 12.6807 35.8854 7.49618C38.2812 4.33877 39.239 2.41114 38.9399 1.58553C38.6545 0.799193 36.8925 1.00703 36.8925 1.00703L31.0282 1.04316C31.0282 1.04316 30.5936 0.984522 30.2711 1.17509C29.9561 1.36199 29.7533 1.79756 29.7533 1.79756C29.7533 1.79756 28.8252 4.24087 27.5873 6.31876C24.9761 10.7033 23.932 10.9347 23.5053 10.6625C22.5125 10.028 22.7603 8.11342 22.7603 6.75329C22.7603 2.50433 23.4121 0.732706 21.4912 0.274094C20.8538 0.121747 20.3847 0.0212298 18.7545 0.00500037C16.6621 -0.0164643 14.8911 0.011282 13.8883 0.497117C13.2212 0.820135 12.7066 1.53999 13.02 1.58135C13.4076 1.63265 14.2854 1.81536 14.7508 2.44203C15.3517 3.25036 15.3305 5.06596 15.3305 5.06596C15.3305 5.06596 15.6757 10.0678 14.5242 10.6892C13.7337 11.1153 12.6494 10.2452 10.3214 6.26746C9.12853 4.22988 8.22793 1.97766 8.22793 1.97766C8.22793 1.97766 8.05427 1.55674 7.74454 1.33162C7.36863 1.05886 6.84341 0.971959 6.84341 0.971959L1.27093 1.00808C1.27093 1.00808 0.434398 1.03112 0.127316 1.39078C-0.145881 1.71066 0.105609 2.3724 0.105609 2.3724C0.105609 2.3724 4.46829 12.465 9.40808 17.5511C13.9375 22.2142 19.0812 21.9079 19.0812 21.9079Z" fill="#F0F0F0"/>
</svg>
